<svg width="18" height="16" viewBox="0 0 18 16" fill="none" xmlns="http://www.w3.org/2000/svg">
<path fill-rule="evenodd" clip-rule="evenodd" d="M0 1.33333C0 0.979711 0.135459 0.640573 0.376577 0.390525C0.617695 0.140476 0.944722 0 1.28571 0H16.7143C17.0553 0 17.3823 0.140476 17.6234 0.390525C17.8645 0.640573 18 0.979711 18 1.33333C18 1.68696 17.8645 2.02609 17.6234 2.27614C17.3823 2.52619 17.0553 2.66667 16.7143 2.66667H1.28571C0.944722 2.66667 0.617695 2.52619 0.376577 2.27614C0.135459 2.02609 0 1.68696 0 1.33333ZM0 8C0 7.64638 0.135459 7.30724 0.376577 7.05719C0.617695 6.80714 0.944722 6.66667 1.28571 6.66667H16.7143C17.0553 6.66667 17.3823 6.80714 17.6234 7.05719C17.8645 7.30724 18 7.64638 18 8C18 8.35362 17.8645 8.69276 17.6234 8.94281C17.3823 9.19286 17.0553 9.33333 16.7143 9.33333H1.28571C0.944722 9.33333 0.617695 9.19286 0.376577 8.94281C0.135459 8.69276 0 8.35362 0 8ZM3.85714 14.6667C3.85714 14.313 3.9926 13.9739 4.23372 13.7239C4.47484 13.4738 4.80186 13.3333 5.14286 13.3333H12.8571C13.1981 13.3333 13.5252 13.4738 13.7663 13.7239C14.0074 13.9739 14.1429 14.313 14.1429 14.6667C14.1429 15.0203 14.0074 15.3594 13.7663 15.6095C13.5252 15.8595 13.1981 16 12.8571 16H5.14286C4.80186 16 4.47484 15.8595 4.23372 15.6095C3.9926 15.3594 3.85714 15.0203 3.85714 14.6667Z" fill="white"/>
</svg>
