<svg width="8" height="15" viewBox="0 0 8 15" fill="none" xmlns="http://www.w3.org/2000/svg">
<path fill-rule="evenodd" clip-rule="evenodd" d="M0.271004 14.7257C0.104586 14.55 0.0110978 14.3118 0.0110978 14.0634C0.0110978 13.815 0.104586 13.5768 0.271004 13.4011L5.85729 7.50586L0.271003 1.61062C0.186219 1.5242 0.118592 1.42083 0.0720684 1.30654C0.025545 1.19225 0.00105715 1.06932 3.29019e-05 0.944934C-0.000991344 0.820547 0.0214692 0.697192 0.0661034 0.582064C0.110738 0.466935 0.176652 0.36234 0.26 0.274382C0.343349 0.186423 0.442462 0.116863 0.551556 0.0697603C0.660651 0.0226574 0.777543 -0.00104526 0.895411 3.62005e-05C1.01328 0.00111671 1.12976 0.0269603 1.23807 0.0760564C1.34637 0.125153 1.44432 0.196519 1.52621 0.285993L7.7401 6.84354C7.90651 7.01922 8 7.25745 8 7.50586C8 7.75426 7.90651 7.99249 7.7401 8.16817L1.52621 14.7257C1.35974 14.9013 1.13399 15 0.898606 15C0.663221 15 0.437472 14.9013 0.271004 14.7257Z" fill="#88868F"/>
</svg>
