<svg width="21" height="20" fill="none" xmlns="http://www.w3.org/2000/svg">
  <path fill-rule="evenodd" clip-rule="evenodd" d="M10.5 2c-.744 0-1.47.24-2.07.687A3.555 3.555 0 0 0 7.16 4.48L6.37 7h8.26l-.79-2.52a3.555 3.555 0 0 0-1.27-1.793A3.472 3.472 0 0 0 10.5 2Zm6.197 5-.977-3.125a5.552 5.552 0 0 0-1.986-2.803A5.423 5.423 0 0 0 10.5 0a5.424 5.424 0 0 0-3.234 1.072A5.553 5.553 0 0 0 5.28 3.875L4.303 7H1.97c-.307 0-.61.073-.886.214-.275.14-.513.344-.697.595A2.015 2.015 0 0 0 .085 9.58l1.108 3.71 1.368 4.58a3 3 0 0 0 1.068 1.54c.51.383 1.127.59 1.762.59h10.218c.635 0 1.252-.207 1.761-.591.51-.383.884-.923 1.068-1.539l1.37-4.58 1.107-3.71a2.028 2.028 0 0 0-.303-1.771 1.979 1.979 0 0 0-.697-.595A1.948 1.948 0 0 0 19.029 7h-2.332ZM5.023 9H1.971l.896 3h3.727l-.405-3H5.023ZM8.18 9l.403 3h3.834l.404-3H8.18Zm6.63 0-.404 3h3.726l.897-3H14.81Zm2.725 5h-3.398l-.537 4h2.008a.977.977 0 0 0 .587-.197 1 1 0 0 0 .356-.513l.983-3.29h.001Zm-5.924 4 .537-4H8.851l.538 4h2.222Zm-4.212 0-.537-4H3.465l.983 3.29a1 1 0 0 0 .356.513c.17.128.375.197.587.197h2.008Z" fill="#fff"/>
</svg>
