<svg width="23" height="21" viewBox="0 0 23 21" fill="none" xmlns="http://www.w3.org/2000/svg">
<path fill-rule="evenodd" clip-rule="evenodd" d="M11.5 2.10039C10.6849 2.10046 9.89095 2.35284 9.23315 2.82099C8.57535 3.28914 8.08783 3.94876 7.84119 4.70434L6.97749 7.35028H16.0225L15.1588 4.70434C14.9122 3.94876 14.4247 3.28914 13.7669 2.82099C13.1091 2.35284 12.3151 2.10046 11.5 2.10039ZM18.2875 7.35028L17.2166 4.0691C16.8315 2.88838 16.0698 1.85755 15.0421 1.12596C14.0143 0.394363 12.7737 0 11.5 0C10.2263 0 8.98574 0.394363 7.95795 1.12596C6.93015 1.85755 6.16854 2.88838 5.78344 4.0691L4.71246 7.35028H2.15917C1.82206 7.35029 1.48964 7.42707 1.18852 7.57446C0.8874 7.72185 0.625946 7.93576 0.425095 8.19907C0.224243 8.46238 0.0895735 8.76777 0.0318691 9.09078C-0.0258354 9.4138 -0.00497173 9.74546 0.0927895 10.0592L1.30628 13.9546L2.80478 18.7635C3.00633 19.4104 3.41648 19.9771 3.97464 20.3798C4.5328 20.7825 5.20936 21 5.90436 21H17.0956C17.7905 20.9998 18.4668 20.7822 19.0247 20.3795C19.5827 19.9768 19.9926 19.4102 20.1941 18.7635L21.6937 13.9546L22.9072 10.0592C23.005 9.74546 23.0258 9.4138 22.9681 9.09078C22.9104 8.76777 22.7758 8.46238 22.5749 8.19907C22.3741 7.93576 22.1126 7.72185 21.8115 7.57446C21.5104 7.42707 21.1779 7.35029 20.8408 7.35028H18.2875ZM5.50166 9.45024H2.15917L3.14054 12.6002H7.22149L6.77884 9.45024H5.50166ZM8.95859 9.45024L9.40015 12.6002H13.5999L14.0425 9.45024H8.95751H8.95859ZM16.2212 9.45024L15.7785 12.6002H19.8595L20.8408 9.45024H16.2212ZM19.2052 14.7001H15.4838L14.8954 18.9H17.0946C17.3262 18.9 17.5518 18.8276 17.7378 18.6933C17.9239 18.5591 18.0606 18.3702 18.1278 18.1546L19.2041 14.7001H19.2052ZM12.7167 18.9L13.3051 14.7001H9.6938L10.2833 18.9H12.7167ZM8.10353 18.9L7.51514 14.7001H3.79479L4.87117 18.1546C4.93835 18.3702 5.07507 18.5591 5.26112 18.6933C5.44717 18.8276 5.67269 18.9 5.90436 18.9H8.10353Z" fill="#88868F"/>
</svg>
