<svg width="20" height="18" viewBox="0 0 20 18" fill="none" xmlns="http://www.w3.org/2000/svg">
<path fill-rule="evenodd" clip-rule="evenodd" d="M10 1.80034C9.2912 1.8004 8.60082 2.01672 8.02882 2.41799C7.45682 2.81927 7.03289 3.38465 6.81842 4.03229L6.06739 6.30024H13.9326L13.1816 4.03229C12.9671 3.38465 12.5432 2.81927 11.9712 2.41799C11.3992 2.01672 10.7088 1.8004 10 1.80034ZM15.9022 6.30024L14.9709 3.4878C14.6361 2.47575 13.9738 1.59218 13.08 0.965105C12.1863 0.338025 11.1075 0 10 0C8.89246 0 7.81369 0.338025 6.91995 0.965105C6.02622 1.59218 5.36395 2.47575 5.02908 3.4878L4.09779 6.30024H1.87754C1.5844 6.30025 1.29534 6.36606 1.0335 6.49239C0.771652 6.61873 0.544301 6.80208 0.369647 7.02777C0.194994 7.25347 0.07789 7.51523 0.0277122 7.7921C-0.0224656 8.06897 -0.00432325 8.35325 0.0806865 8.6222L1.13589 11.9611L2.43894 16.083C2.6142 16.6375 2.97086 17.1232 3.45621 17.4684C3.94157 17.8136 4.52988 18 5.13422 18H14.8658C15.47 17.9998 16.0581 17.8133 16.5432 17.4681C17.0284 17.123 17.3849 16.6374 17.5601 16.083L18.8641 11.9611L19.9193 8.6222C20.0043 8.35325 20.0225 8.06897 19.9723 7.7921C19.9221 7.51523 19.805 7.25347 19.6304 7.02777C19.4557 6.80208 19.2283 6.61873 18.9665 6.49239C18.7047 6.36606 18.4156 6.30025 18.1225 6.30024H15.9022ZM4.78405 8.10021H1.87754L2.73091 10.8001H6.27955L5.89465 8.10021H4.78405ZM7.79008 8.10021L8.17404 10.8001H11.826L12.2109 8.10021H7.78914H7.79008ZM14.1054 8.10021L13.7204 10.8001H17.2691L18.1225 8.10021H14.1054ZM16.7002 12.6001H13.4642L12.9525 16.2H14.8648C15.0663 16.2 15.2624 16.1379 15.4242 16.0228C15.586 15.9078 15.7048 15.7459 15.7633 15.5611L16.6992 12.6001H16.7002ZM11.058 16.2L11.5697 12.6001H8.42939L8.94198 16.2H11.058ZM7.04655 16.2L6.53491 12.6001H3.29982L4.2358 15.5611C4.29422 15.7459 4.4131 15.9078 4.57489 16.0228C4.73667 16.1379 4.93277 16.2 5.13422 16.2H7.04655Z" fill="#F85A3E"/>
</svg>
