<svg width="22" height="20" viewBox="0 0 22 20" fill="none" xmlns="http://www.w3.org/2000/svg">
<path fill-rule="evenodd" clip-rule="evenodd" d="M11 2.00038C10.2203 2.00044 9.46091 2.2408 8.83171 2.68666C8.20251 3.13252 7.73618 3.76073 7.50026 4.48032L6.67412 7.00027H15.3259L14.4997 4.48032C14.2638 3.76073 13.7975 3.13252 13.1683 2.68666C12.5391 2.2408 11.7797 2.00044 11 2.00038ZM17.4924 7.00027L16.468 3.87534C16.0997 2.75083 15.3712 1.76909 14.3881 1.07234C13.4049 0.375583 12.2183 0 11 0C9.78171 0 8.59506 0.375583 7.61195 1.07234C6.62884 1.76909 5.90034 2.75083 5.53199 3.87534L4.50757 7.00027H2.0653C1.74284 7.00028 1.42487 7.0734 1.13685 7.21377C0.848817 7.35414 0.598731 7.55787 0.406612 7.80864C0.214493 8.05941 0.085679 8.35025 0.0304834 8.65789C-0.0247121 8.96552 -0.00475557 9.28139 0.0887552 9.58022L1.24948 13.2901L2.68283 17.87C2.87562 18.4861 3.26794 19.0258 3.80183 19.4093C4.33572 19.7929 4.98287 20 5.64764 20H16.3524C17.017 19.9998 17.6639 19.7926 18.1975 19.409C18.7312 19.0255 19.1234 18.486 19.3161 17.87L20.7505 13.2901L21.9112 9.58022C22.0048 9.28139 22.0247 8.96552 21.9695 8.65789C21.9143 8.35025 21.7855 8.05941 21.5934 7.80864C21.4013 7.55787 21.1512 7.35414 20.8632 7.21377C20.5751 7.0734 20.2572 7.00028 19.9347 7.00027H17.4924ZM5.26246 9.00023H2.0653L3.004 12.0002H6.90751L6.48411 9.00023H5.26246ZM8.56908 9.00023L8.99145 12.0002H13.0086L13.4319 9.00023H8.56805H8.56908ZM15.5159 9.00023L15.0925 12.0002H18.996L19.9347 9.00023H15.5159ZM18.3702 14.0001H14.8106L14.2478 18H16.3513C16.5729 18 16.7886 17.931 16.9666 17.8032C17.1446 17.6753 17.2753 17.4954 17.3396 17.2901L18.3692 14.0001H18.3702ZM12.1638 18L12.7266 14.0001H9.27233L9.83617 18H12.1638ZM7.7512 18L7.1884 14.0001H3.6298L4.65938 17.2901C4.72364 17.4954 4.85441 17.6753 5.03237 17.8032C5.21034 17.931 5.42605 18 5.64764 18H7.7512Z" fill="#88868F"/>
</svg>
