<svg width="22" height="19" fill="none" xmlns="http://www.w3.org/2000/svg">
  <path fill-rule="evenodd" clip-rule="evenodd" d="M0 1.583c0-.42.166-.822.46-1.12A1.565 1.565 0 0 1 1.571 0H20.43c.416 0 .816.167 1.11.464a1.59 1.59 0 0 1 0 2.239 1.565 1.565 0 0 1-1.11.464H1.57c-.416 0-.816-.167-1.11-.464A1.59 1.59 0 0 1 0 1.583ZM0 9.5c0-.42.166-.823.46-1.12a1.565 1.565 0 0 1 1.111-.463H20.43c.416 0 .816.166 1.11.463a1.59 1.59 0 0 1 0 2.24 1.566 1.566 0 0 1-1.11.463H1.57c-.416 0-.816-.167-1.11-.463A1.59 1.59 0 0 1 0 9.5Zm9.429 7.917c0-.42.165-.823.46-1.12A1.565 1.565 0 0 1 11 15.833h9.429c.416 0 .816.167 1.11.464a1.59 1.59 0 0 1 0 2.24 1.566 1.566 0 0 1-1.11.463H11c-.417 0-.816-.167-1.111-.464a1.59 1.59 0 0 1-.46-1.12Z" fill="#211F2E"/>
</svg>
