<svg width="16" height="16" viewBox="0 0 16 16" fill="none" xmlns="http://www.w3.org/2000/svg">
<path fill-rule="evenodd" clip-rule="evenodd" d="M0.888889 0C1.12464 0 1.35073 0.0936505 1.51743 0.260349C1.68413 0.427048 1.77778 0.653141 1.77778 0.888889V1.77778H3.55556V0.888889C3.55556 0.653141 3.64921 0.427048 3.81591 0.260349C3.9826 0.0936505 4.2087 0 4.44444 0C4.68019 0 4.90628 0.0936505 5.07298 0.260349C5.23968 0.427048 5.33333 0.653141 5.33333 0.888889V1.77778H7.11111V0.888889C7.11111 0.653141 7.20476 0.427048 7.37146 0.260349C7.53816 0.0936505 7.76425 0 8 0C8.23575 0 8.46184 0.0936505 8.62854 0.260349C8.79524 0.427048 8.88889 0.653141 8.88889 0.888889V1.77778H10.6667V0.888889C10.6667 0.653141 10.7603 0.427048 10.927 0.260349C11.0937 0.0936505 11.3198 0 11.5556 0C11.7913 0 12.0174 0.0936505 12.1841 0.260349C12.3508 0.427048 12.4444 0.653141 12.4444 0.888889V1.77778H14.2222V0.888889C14.2222 0.653141 14.3159 0.427048 14.4826 0.260349C14.6493 0.0936505 14.8754 0 15.1111 0C15.3469 0 15.573 0.0936505 15.7397 0.260349C15.9064 0.427048 16 0.653141 16 0.888889V13.3333C16 14.0406 15.719 14.7189 15.219 15.219C14.7189 15.719 14.0406 16 13.3333 16H2.66667C1.95942 16 1.28115 15.719 0.781049 15.219C0.280952 14.7189 0 14.0406 0 13.3333V0.888889C0 0.653141 0.0936505 0.427048 0.260349 0.260349C0.427048 0.0936505 0.653141 0 0.888889 0ZM14.2222 3.55556H1.77778V13.3333C1.77778 13.5691 1.87143 13.7952 2.03813 13.9619C2.20483 14.1286 2.43092 14.2222 2.66667 14.2222H13.3333C13.5691 14.2222 13.7952 14.1286 13.9619 13.9619C14.1286 13.7952 14.2222 13.5691 14.2222 13.3333V3.55556ZM8.88889 6.22222C8.88889 6.45797 8.79524 6.68406 8.62854 6.85076C8.46184 7.01746 8.23575 7.11111 8 7.11111C7.76425 7.11111 7.53816 7.01746 7.37146 6.85076C7.20476 6.68406 7.11111 6.45797 7.11111 6.22222C7.11111 5.98647 7.20476 5.76038 7.37146 5.59368C7.53816 5.42698 7.76425 5.33333 8 5.33333C8.23575 5.33333 8.46184 5.42698 8.62854 5.59368C8.79524 5.76038 8.88889 5.98647 8.88889 6.22222ZM11.5556 7.11111C11.7913 7.11111 12.0174 7.01746 12.1841 6.85076C12.3508 6.68406 12.4444 6.45797 12.4444 6.22222C12.4444 5.98647 12.3508 5.76038 12.1841 5.59368C12.0174 5.42698 11.7913 5.33333 11.5556 5.33333C11.3198 5.33333 11.0937 5.42698 10.927 5.59368C10.7603 5.76038 10.6667 5.98647 10.6667 6.22222C10.6667 6.45797 10.7603 6.68406 10.927 6.85076C11.0937 7.01746 11.3198 7.11111 11.5556 7.11111ZM5.33333 8.88889C5.33333 9.12464 5.23968 9.35073 5.07298 9.51743C4.90628 9.68413 4.68019 9.77778 4.44444 9.77778C4.2087 9.77778 3.9826 9.68413 3.81591 9.51743C3.64921 9.35073 3.55556 9.12464 3.55556 8.88889C3.55556 8.65314 3.64921 8.42705 3.81591 8.26035C3.9826 8.09365 4.2087 8 4.44444 8C4.68019 8 4.90628 8.09365 5.07298 8.26035C5.23968 8.42705 5.33333 8.65314 5.33333 8.88889ZM8 9.77778C8.23575 9.77778 8.46184 9.68413 8.62854 9.51743C8.79524 9.35073 8.88889 9.12464 8.88889 8.88889C8.88889 8.65314 8.79524 8.42705 8.62854 8.26035C8.46184 8.09365 8.23575 8 8 8C7.76425 8 7.53816 8.09365 7.37146 8.26035C7.20476 8.42705 7.11111 8.65314 7.11111 8.88889C7.11111 9.12464 7.20476 9.35073 7.37146 9.51743C7.53816 9.68413 7.76425 9.77778 8 9.77778ZM12.4444 8.88889C12.4444 9.12464 12.3508 9.35073 12.1841 9.51743C12.0174 9.68413 11.7913 9.77778 11.5556 9.77778C11.3198 9.77778 11.0937 9.68413 10.927 9.51743C10.7603 9.35073 10.6667 9.12464 10.6667 8.88889C10.6667 8.65314 10.7603 8.42705 10.927 8.26035C11.0937 8.09365 11.3198 8 11.5556 8C11.7913 8 12.0174 8.09365 12.1841 8.26035C12.3508 8.42705 12.4444 8.65314 12.4444 8.88889ZM4.44444 12.4444C4.68019 12.4444 4.90628 12.3508 5.07298 12.1841C5.23968 12.0174 5.33333 11.7913 5.33333 11.5556C5.33333 11.3198 5.23968 11.0937 5.07298 10.927C4.90628 10.7603 4.68019 10.6667 4.44444 10.6667C4.2087 10.6667 3.9826 10.7603 3.81591 10.927C3.64921 11.0937 3.55556 11.3198 3.55556 11.5556C3.55556 11.7913 3.64921 12.0174 3.81591 12.1841C3.9826 12.3508 4.2087 12.4444 4.44444 12.4444ZM8.88889 11.5556C8.88889 11.7913 8.79524 12.0174 8.62854 12.1841C8.46184 12.3508 8.23575 12.4444 8 12.4444C7.76425 12.4444 7.53816 12.3508 7.37146 12.1841C7.20476 12.0174 7.11111 11.7913 7.11111 11.5556C7.11111 11.3198 7.20476 11.0937 7.37146 10.927C7.53816 10.7603 7.76425 10.6667 8 10.6667C8.23575 10.6667 8.46184 10.7603 8.62854 10.927C8.79524 11.0937 8.88889 11.3198 8.88889 11.5556ZM11.5556 12.4444C11.7913 12.4444 12.0174 12.3508 12.1841 12.1841C12.3508 12.0174 12.4444 11.7913 12.4444 11.5556C12.4444 11.3198 12.3508 11.0937 12.1841 10.927C12.0174 10.7603 11.7913 10.6667 11.5556 10.6667C11.3198 10.6667 11.0937 10.7603 10.927 10.927C10.7603 11.0937 10.6667 11.3198 10.6667 11.5556C10.6667 11.7913 10.7603 12.0174 10.927 12.1841C11.0937 12.3508 11.3198 12.4444 11.5556 12.4444Z" fill="#88868F"/>
</svg>
