<svg width="20" height="20" viewBox="0 0 20 20" fill="none" xmlns="http://www.w3.org/2000/svg">
<path fill-rule="evenodd" clip-rule="evenodd" d="M1.81818 10C1.81818 8.92555 2.02981 7.86162 2.44099 6.86895C2.85216 5.87629 3.45483 4.97433 4.21458 4.21458C4.97433 3.45483 5.87629 2.85216 6.86895 2.44099C7.86162 2.02981 8.92555 1.81818 10 1.81818C11.0745 1.81818 12.1384 2.02981 13.131 2.44099C14.1237 2.85216 15.0257 3.45483 15.7854 4.21458C16.5452 4.97433 17.1478 5.87629 17.559 6.86895C17.9702 7.86162 18.1818 8.92555 18.1818 10C18.1818 12.17 17.3198 14.251 15.7854 15.7854C14.251 17.3198 12.17 18.1818 10 18.1818C7.83005 18.1818 5.74897 17.3198 4.21458 15.7854C2.68019 14.251 1.81818 12.17 1.81818 10ZM10 0C4.47727 0 0 4.47727 0 10C0 15.5227 4.47727 20 10 20C15.5227 20 20 15.5227 20 10C20 4.47727 15.5227 0 10 0ZM7.42909 6.14273C7.25851 5.97215 7.02715 5.87631 6.78591 5.87631C6.54467 5.87631 6.31331 5.97215 6.14273 6.14273C5.97215 6.31331 5.87631 6.54467 5.87631 6.78591C5.87631 6.90536 5.89984 7.02364 5.94555 7.134C5.99126 7.24435 6.05826 7.34463 6.14273 7.42909L8.71455 10L6.14273 12.5709C5.97215 12.7415 5.87631 12.9729 5.87631 13.2141C5.87631 13.4553 5.97215 13.6867 6.14273 13.8573C6.31331 14.0279 6.54467 14.1237 6.78591 14.1237C7.02715 14.1237 7.25851 14.0279 7.42909 13.8573L10 11.2855L12.5718 13.8573C12.6563 13.9417 12.7565 14.0086 12.8669 14.0543C12.9772 14.0999 13.0955 14.1234 13.2149 14.1234C13.3343 14.1233 13.4525 14.0998 13.5628 14.054C13.6731 14.0083 13.7733 13.9413 13.8577 13.8568C13.9421 13.7724 14.0091 13.6721 14.0547 13.5618C14.1004 13.4514 14.1239 13.3332 14.1238 13.2138C14.1238 13.0944 14.1002 12.9761 14.0545 12.8658C14.0087 12.7555 13.9417 12.6553 13.8573 12.5709L11.2855 10L13.8573 7.42909C14.0279 7.25863 14.1237 7.02739 14.1238 6.78623C14.1239 6.54508 14.0282 6.31376 13.8577 6.14318C13.6873 5.9726 13.456 5.87672 13.2149 5.87663C12.9737 5.87655 12.7424 5.97227 12.5718 6.14273L10 8.71455L7.42909 6.14273Z" fill="#EB5757"/>
</svg>
