<svg width="20" height="18" viewBox="0 0 20 18" fill="none" xmlns="http://www.w3.org/2000/svg">
<path fill-rule="evenodd" clip-rule="evenodd" d="M7 1.99794C6.46957 1.99794 5.96086 2.20866 5.58579 2.58373C5.21071 2.9588 5 3.46751 5 3.99794C5 4.52838 5.21071 5.03708 5.58579 5.41216C5.96086 5.78723 6.46957 5.99794 7 5.99794C7.53043 5.99794 8.03914 5.78723 8.41421 5.41216C8.78929 5.03708 9 4.52838 9 3.99794C9 3.46751 8.78929 2.9588 8.41421 2.58373C8.03914 2.20866 7.53043 1.99794 7 1.99794ZM10.874 2.99794C10.6516 2.1397 10.1504 1.37962 9.44926 0.837017C8.7481 0.294411 7.8866 0 7 0C6.1134 0 5.2519 0.294411 4.55074 0.837017C3.84957 1.37962 3.34844 2.1397 3.126 2.99794H1C0.734784 2.99794 0.48043 3.1033 0.292893 3.29084C0.105357 3.47837 0 3.73273 0 3.99794C0 4.26316 0.105357 4.51751 0.292893 4.70505C0.48043 4.89259 0.734784 4.99794 1 4.99794H3.126C3.34844 5.85618 3.84957 6.61626 4.55074 7.15887C5.2519 7.70148 6.1134 7.99589 7 7.99589C7.8866 7.99589 8.7481 7.70148 9.44926 7.15887C10.1504 6.61626 10.6516 5.85618 10.874 4.99794H19C19.2652 4.99794 19.5196 4.89259 19.7071 4.70505C19.8946 4.51751 20 4.26316 20 3.99794C20 3.73273 19.8946 3.47837 19.7071 3.29084C19.5196 3.1033 19.2652 2.99794 19 2.99794H10.874Z" fill="#88868F"/>
<path fill-rule="evenodd" clip-rule="evenodd" d="M13 11.9979C12.4696 11.9979 11.9609 12.2087 11.5858 12.5837C11.2107 12.9588 11 13.4675 11 13.9979C11 14.5284 11.2107 15.0371 11.5858 15.4122C11.9609 15.7872 12.4696 15.9979 13 15.9979C13.5304 15.9979 14.0391 15.7872 14.4142 15.4122C14.7893 15.0371 15 14.5284 15 13.9979C15 13.4675 14.7893 12.9588 14.4142 12.5837C14.0391 12.2087 13.5304 11.9979 13 11.9979ZM16.874 12.9979C16.6516 12.1397 16.1504 11.3796 15.4493 10.837C14.7481 10.2944 13.8866 10 13 10C12.1134 10 11.2519 10.2944 10.5507 10.837C9.84957 11.3796 9.34844 12.1397 9.126 12.9979H1C0.734784 12.9979 0.48043 13.1033 0.292893 13.2908C0.105357 13.4784 0 13.7327 0 13.9979C0 14.2632 0.105357 14.5175 0.292893 14.7051C0.48043 14.8926 0.734784 14.9979 1 14.9979H9.126C9.34844 15.8562 9.84957 16.6163 10.5507 17.1589C11.2519 17.7015 12.1134 17.9959 13 17.9959C13.8866 17.9959 14.7481 17.7015 15.4493 17.1589C16.1504 16.6163 16.6516 15.8562 16.874 14.9979H19C19.2652 14.9979 19.5196 14.8926 19.7071 14.7051C19.8946 14.5175 20 14.2632 20 13.9979C20 13.7327 19.8946 13.4784 19.7071 13.2908C19.5196 13.1033 19.2652 12.9979 19 12.9979H16.874Z" fill="#88868F"/>
</svg>
