<svg width="22" height="22" viewBox="0 0 22 22" fill="none" xmlns="http://www.w3.org/2000/svg">
<path fill-rule="evenodd" clip-rule="evenodd" d="M10.553 1.10155C10.6918 1.0322 10.8448 0.996094 11 0.996094C11.1552 0.996094 11.3082 1.0322 11.447 1.10155L21.447 6.10131C21.6482 6.20217 21.8096 6.36796 21.9049 6.57187C22.0002 6.77579 22.0239 7.00589 21.9722 7.22496C21.9205 7.44402 21.7964 7.63924 21.62 7.77902C21.4435 7.91881 21.2251 7.99498 21 7.99522H1C0.774904 7.99498 0.556472 7.91881 0.380043 7.77902C0.203614 7.63924 0.0795081 7.44402 0.0278039 7.22496C-0.0239003 7.00589 -0.00017871 6.77579 0.095131 6.57187C0.190441 6.36796 0.351764 6.20217 0.553 6.10131L10.553 1.10155ZM5.236 5.99532H16.764L11 3.11346L5.236 5.99532ZM5 8.99517C5.26522 8.99517 5.51957 9.10052 5.70711 9.28805C5.89464 9.47558 6 9.72992 6 9.99512V14.9949C6 15.2601 5.89464 15.5144 5.70711 15.702C5.51957 15.8895 5.26522 15.9948 5 15.9948C4.73478 15.9948 4.48043 15.8895 4.29289 15.702C4.10536 15.5144 4 15.2601 4 14.9949V9.99512C4 9.72992 4.10536 9.47558 4.29289 9.28805C4.48043 9.10052 4.73478 8.99517 5 8.99517ZM9 8.99517C9.26522 8.99517 9.51957 9.10052 9.70711 9.28805C9.89464 9.47558 10 9.72992 10 9.99512V14.9949C10 15.2601 9.89464 15.5144 9.70711 15.702C9.51957 15.8895 9.26522 15.9948 9 15.9948C8.73478 15.9948 8.48043 15.8895 8.29289 15.702C8.10536 15.5144 8 15.2601 8 14.9949V9.99512C8 9.72992 8.10536 9.47558 8.29289 9.28805C8.48043 9.10052 8.73478 8.99517 9 8.99517ZM13 8.99517C13.2652 8.99517 13.5196 9.10052 13.7071 9.28805C13.8946 9.47558 14 9.72992 14 9.99512V14.9949C14 15.2601 13.8946 15.5144 13.7071 15.702C13.5196 15.8895 13.2652 15.9948 13 15.9948C12.7348 15.9948 12.4804 15.8895 12.2929 15.702C12.1054 15.5144 12 15.2601 12 14.9949V9.99512C12 9.72992 12.1054 9.47558 12.2929 9.28805C12.4804 9.10052 12.7348 8.99517 13 8.99517ZM17 8.99517C17.2652 8.99517 17.5196 9.10052 17.7071 9.28805C17.8946 9.47558 18 9.72992 18 9.99512V14.9949C18 15.2601 17.8946 15.5144 17.7071 15.702C17.5196 15.8895 17.2652 15.9948 17 15.9948C16.7348 15.9948 16.4804 15.8895 16.2929 15.702C16.1054 15.5144 16 15.2601 16 14.9949V9.99512C16 9.72992 16.1054 9.47558 16.2929 9.28805C16.4804 9.10052 16.7348 8.99517 17 8.99517ZM2 17.9947C2 17.7295 2.10536 17.4752 2.29289 17.2877C2.48043 17.1001 2.73478 16.9948 3 16.9948H19C19.2652 16.9948 19.5196 17.1001 19.7071 17.2877C19.8946 17.4752 20 17.7295 20 17.9947C20 18.2599 19.8946 18.5143 19.7071 18.7018C19.5196 18.8893 19.2652 18.9947 19 18.9947H3C2.73478 18.9947 2.48043 18.8893 2.29289 18.7018C2.10536 18.5143 2 18.2599 2 17.9947ZM0 20.9946C0 20.7294 0.105357 20.475 0.292893 20.2875C0.48043 20.1 0.734784 19.9946 1 19.9946H21C21.2652 19.9946 21.5196 20.1 21.7071 20.2875C21.8946 20.475 22 20.7294 22 20.9946C22 21.2598 21.8946 21.5141 21.7071 21.7017C21.5196 21.8892 21.2652 21.9945 21 21.9945H1C0.734784 21.9945 0.48043 21.8892 0.292893 21.7017C0.105357 21.5141 0 21.2598 0 20.9946Z" fill="#88868F"/>
</svg>
