<svg width="18" height="17" viewBox="0 0 18 17" fill="none" xmlns="http://www.w3.org/2000/svg">
<path fill-rule="evenodd" clip-rule="evenodd" d="M0 2.83333C0 2.08189 0.284464 1.36122 0.790812 0.829864C1.29716 0.298511 1.98392 0 2.7 0H15.3C16.0161 0 16.7028 0.298511 17.2092 0.829864C17.7155 1.36122 18 2.08189 18 2.83333V4.72222C18 4.9727 17.9052 5.21293 17.7364 5.39005C17.5676 5.56716 17.3387 5.66667 17.1 5.66667V14.1667C17.1 14.9181 16.8155 15.6388 16.3092 16.1701C15.8028 16.7015 15.1161 17 14.4 17H3.6C2.88392 17 2.19716 16.7015 1.69081 16.1701C1.18446 15.6388 0.9 14.9181 0.9 14.1667V5.66667C0.661305 5.66667 0.432387 5.56716 0.263604 5.39005C0.0948211 5.21293 0 4.9727 0 4.72222V2.83333ZM2.7 5.66667V14.1667C2.7 14.4171 2.79482 14.6574 2.9636 14.8345C3.13239 15.0116 3.3613 15.1111 3.6 15.1111H14.4C14.6387 15.1111 14.8676 15.0116 15.0364 14.8345C15.2052 14.6574 15.3 14.4171 15.3 14.1667V5.66667H2.7ZM1.8 3.77778V2.83333C1.8 2.58285 1.89482 2.34263 2.0636 2.16551C2.23239 1.98839 2.46131 1.88889 2.7 1.88889H15.3C15.5387 1.88889 15.7676 1.98839 15.9364 2.16551C16.1052 2.34263 16.2 2.58285 16.2 2.83333V3.77778H1.8ZM5.4 9.44444C5.4 9.19396 5.49482 8.95374 5.6636 8.77662C5.83239 8.5995 6.06131 8.5 6.3 8.5H11.7C11.9387 8.5 12.1676 8.5995 12.3364 8.77662C12.5052 8.95374 12.6 9.19396 12.6 9.44444C12.6 9.69493 12.5052 9.93515 12.3364 10.1123C12.1676 10.2894 11.9387 10.3889 11.7 10.3889H6.3C6.06131 10.3889 5.83239 10.2894 5.6636 10.1123C5.49482 9.93515 5.4 9.69493 5.4 9.44444Z" fill="#2F80ED"/>
</svg>
