<svg width="18" height="23" viewBox="0 0 18 23" fill="none" xmlns="http://www.w3.org/2000/svg">
<path fill-rule="evenodd" clip-rule="evenodd" d="M6.293 1.28206C6.48049 1.09452 6.73481 0.989131 7 0.989075H15C15.7956 0.989075 16.5587 1.30513 17.1213 1.86771C17.6839 2.43029 18 3.19332 18 3.98893V19.9881C18 20.7837 17.6839 21.5468 17.1213 22.1093C16.5587 22.6719 15.7956 22.988 15 22.988H3C2.20435 22.988 1.44129 22.6719 0.87868 22.1093C0.316071 21.5468 0 20.7837 0 19.9881V7.98873C5.66374e-05 7.72355 0.105451 7.46925 0.293 7.28176L6.293 1.28206ZM15 2.98898H8V7.98873C8 8.25393 7.89464 8.50827 7.70711 8.6958C7.51957 8.88333 7.26522 8.98868 7 8.98868H2V19.9881C2 20.2533 2.10536 20.5077 2.29289 20.6952C2.48043 20.8827 2.73478 20.9881 3 20.9881H15C15.2652 20.9881 15.5196 20.8827 15.7071 20.6952C15.8946 20.5077 16 20.2533 16 19.9881V3.98893C16 3.72372 15.8946 3.46938 15.7071 3.28185C15.5196 3.09433 15.2652 2.98898 15 2.98898ZM3.414 6.98878H6V4.40291L3.414 6.98878ZM4 12.9885C4 12.7233 4.10536 12.4689 4.29289 12.2814C4.48043 12.0939 4.73478 11.9885 5 11.9885H13C13.2652 11.9885 13.5196 12.0939 13.7071 12.2814C13.8946 12.4689 14 12.7233 14 12.9885C14 13.2537 13.8946 13.508 13.7071 13.6956C13.5196 13.8831 13.2652 13.9884 13 13.9884H5C4.73478 13.9884 4.48043 13.8831 4.29289 13.6956C4.10536 13.508 4 13.2537 4 12.9885ZM4 16.9883C4 16.7231 4.10536 16.4687 4.29289 16.2812C4.48043 16.0937 4.73478 15.9883 5 15.9883H13C13.2652 15.9883 13.5196 16.0937 13.7071 16.2812C13.8946 16.4687 14 16.7231 14 16.9883C14 17.2535 13.8946 17.5078 13.7071 17.6954C13.5196 17.8829 13.2652 17.9882 13 17.9882H5C4.73478 17.9882 4.48043 17.8829 4.29289 17.6954C4.10536 17.5078 4 17.2535 4 16.9883Z" fill="#88868F"/>
</svg>
