<svg width="18" height="23" viewBox="0 0 18 23" fill="none" xmlns="http://www.w3.org/2000/svg">
<path fill-rule="evenodd" clip-rule="evenodd" d="M6.293 1.27834C6.48049 1.0908 6.73481 0.985408 7 0.985352H15C15.7956 0.985352 16.5587 1.30141 17.1213 1.86399C17.6839 2.42657 18 3.18959 18 3.9852V19.9844C18 20.78 17.6839 21.543 17.1213 22.1056C16.5587 22.6682 15.7956 22.9843 15 22.9843H3C2.20435 22.9843 1.44129 22.6682 0.87868 22.1056C0.316071 21.543 0 20.78 0 19.9844V7.985C5.66374e-05 7.71982 0.105451 7.46552 0.293 7.27804L6.293 1.27834ZM15 2.98525H8V7.985C8 8.25021 7.89464 8.50455 7.70711 8.69208C7.51957 8.8796 7.26522 8.98495 7 8.98495H2V19.9844C2 20.2496 2.10536 20.504 2.29289 20.6915C2.48043 20.879 2.73478 20.9844 3 20.9844H15C15.2652 20.9844 15.5196 20.879 15.7071 20.6915C15.8946 20.504 16 20.2496 16 19.9844V3.9852C16 3.72 15.8946 3.46566 15.7071 3.27813C15.5196 3.0906 15.2652 2.98525 15 2.98525ZM3.414 6.98505H6V4.39918L3.414 6.98505ZM4 12.9848C4 12.7196 4.10536 12.4652 4.29289 12.2777C4.48043 12.0902 4.73478 11.9848 5 11.9848H13C13.2652 11.9848 13.5196 12.0902 13.7071 12.2777C13.8946 12.4652 14 12.7196 14 12.9848C14 13.25 13.8946 13.5043 13.7071 13.6918C13.5196 13.8794 13.2652 13.9847 13 13.9847H5C4.73478 13.9847 4.48043 13.8794 4.29289 13.6918C4.10536 13.5043 4 13.25 4 12.9848ZM4 16.9846C4 16.7194 4.10536 16.465 4.29289 16.2775C4.48043 16.09 4.73478 15.9846 5 15.9846H13C13.2652 15.9846 13.5196 16.09 13.7071 16.2775C13.8946 16.465 14 16.7194 14 16.9846C14 17.2498 13.8946 17.5041 13.7071 17.6916C13.5196 17.8792 13.2652 17.9845 13 17.9845H5C4.73478 17.9845 4.48043 17.8792 4.29289 17.6916C4.10536 17.5041 4 17.2498 4 16.9846Z" fill="#88868F"/>
</svg>
