<svg width="20" height="16" viewBox="0 0 22 17" fill="none" xmlns="http://www.w3.org/2000/svg">
<path fill-rule="evenodd" clip-rule="evenodd" d="M7.00043 7.00067C7.00043 5.9398 7.42186 4.92238 8.17201 4.17224C8.92215 3.42209 9.93957 3.00067 11.0004 3.00067C12.0613 3.00067 13.0787 3.42209 13.8289 4.17224C14.579 4.92238 15.0004 5.9398 15.0004 7.00067V8.00067H16.0004C16.4601 8.00067 16.9152 8.0912 17.3398 8.26709C17.7645 8.44298 18.1503 8.70079 18.4753 9.02579C18.8003 9.3508 19.0581 9.73663 19.234 10.1613C19.4099 10.5859 19.5004 11.041 19.5004 11.5007C19.5004 11.9603 19.4099 12.4154 19.234 12.8401C19.0581 13.2647 18.8003 13.6505 18.4753 13.9755C18.1503 14.3005 17.7645 14.5584 17.3398 14.7342C16.9152 14.9101 16.4601 15.0007 16.0004 15.0007H15.9004C15.6352 15.0007 15.3809 15.106 15.1933 15.2936C15.0058 15.4811 14.9004 15.7354 14.9004 16.0007C14.9004 16.2659 15.0058 16.5202 15.1933 16.7078C15.3809 16.8953 15.6352 17.0007 15.9004 17.0007H16.0004C17.3796 17.0024 18.709 16.486 19.7253 15.5538C20.7416 14.6215 21.3706 13.3415 21.4876 11.9673C21.6046 10.5931 21.2011 9.22519 20.3571 8.13452C19.513 7.04386 18.29 6.3101 16.9304 6.07867C16.7108 4.66355 15.9923 3.37363 14.9048 2.4419C13.8173 1.51016 12.4325 0.998047 11.0004 0.998047C9.56838 0.998047 8.18353 1.51016 7.09603 2.4419C6.00852 3.37363 5.29007 4.66355 5.07043 6.07867C3.71532 6.31524 2.49798 7.05086 1.65837 8.14052C0.818755 9.23019 0.417787 10.5948 0.534497 11.9655C0.651207 13.3361 1.27713 14.6134 2.28888 15.5454C3.30064 16.4774 4.62483 16.9966 6.00043 17.0007H6.10043C6.36565 17.0007 6.62 16.8953 6.80754 16.7078C6.99508 16.5202 7.10043 16.2659 7.10043 16.0007C7.10043 15.7354 6.99508 15.4811 6.80754 15.2936C6.62 15.106 6.36565 15.0007 6.10043 15.0007H6.00043C5.54081 15.0007 5.08568 14.9101 4.66104 14.7342C4.2364 14.5584 3.85056 14.3005 3.52556 13.9755C3.20055 13.6505 2.94275 13.2647 2.76685 12.8401C2.59096 12.4154 2.50043 11.9603 2.50043 11.5007C2.50043 11.041 2.59096 10.5859 2.76685 10.1613C2.94275 9.73663 3.20055 9.3508 3.52556 9.02579C3.85056 8.70079 4.2364 8.44298 4.66104 8.26709C5.08568 8.0912 5.54081 8.00067 6.00043 8.00067H7.00043V7.00067ZM12.0004 8.00067C12.0004 7.73545 11.8951 7.4811 11.7075 7.29356C11.52 7.10602 11.2656 7.00067 11.0004 7.00067C10.7352 7.00067 10.4809 7.10602 10.2933 7.29356C10.1058 7.4811 10.0004 7.73545 10.0004 8.00067V13.5867L8.70743 12.2937C8.51883 12.1115 8.26623 12.0107 8.00403 12.013C7.74184 12.0153 7.49102 12.1204 7.30561 12.3058C7.12021 12.4913 7.01504 12.7421 7.01276 13.0043C7.01048 13.2665 7.11128 13.5191 7.29343 13.7077L10.2934 16.7077C10.481 16.8951 10.7353 17.0005 11.0004 17.0005C11.2656 17.0005 11.5199 16.8951 11.7074 16.7077L14.7074 13.7077C14.8896 13.5191 14.9904 13.2665 14.9881 13.0043C14.9858 12.7421 14.8807 12.4913 14.6953 12.3058C14.5098 12.1204 14.259 12.0153 13.9968 12.013C13.7346 12.0107 13.482 12.1115 13.2934 12.2937L12.0004 13.5867V8.00067Z" fill="#F85A3E"/>
</svg>
