<svg width="24" height="24" fill="none" xmlns="http://www.w3.org/2000/svg">
  <path fill-rule="evenodd" clip-rule="evenodd" d="M5.375 3A2.375 2.375 0 0 0 3 5.375v3.562a2.375 2.375 0 0 0 2.375 2.375h3.563a2.375 2.375 0 0 0 2.374-2.375V5.375A2.375 2.375 0 0 0 8.938 3H5.374Zm0 2.375h3.563v3.562H5.374V5.375Zm9.5 0a1.188 1.188 0 0 0 0 2.375h5.938a1.188 1.188 0 0 0 0-2.375h-5.938Zm0 10.687a1.188 1.188 0 0 0 0 2.375h5.938a1.188 1.188 0 0 0 0-2.375h-5.938ZM3 16.062a2.375 2.375 0 0 1 2.375-2.375h3.563a2.375 2.375 0 0 1 2.374 2.375v3.563A2.375 2.375 0 0 1 8.938 22H5.374A2.375 2.375 0 0 1 3 19.625v-3.563Zm5.938 0H5.374v3.563h3.563v-3.563Z" fill="#F85A3E" opacity=".7"/>
</svg>
