<svg width="87" height="24" fill="none" xmlns="http://www.w3.org/2000/svg">
  <path d="M35.282 18h1.416v-1.568c.592.101 1.16.077 1.704-.072a3.652 3.652 0 0 0 1.472-.816c.432-.39.774-.888 1.024-1.496.251-.613.376-1.33.376-2.152 0-.821-.125-1.539-.376-2.152-.25-.619-.592-1.123-1.024-1.512a3.606 3.606 0 0 0-1.472-.824 3.732 3.732 0 0 0-1.704-.088v-.84h-1.416v.84a3.77 3.77 0 0 0-1.712.088 3.612 3.612 0 0 0-1.464.824c-.426.39-.765.893-1.016 1.512-.25.613-.376 1.33-.376 2.152 0 .821.126 1.539.376 2.152.251.608.59 1.107 1.016 1.496.432.39.92.661 1.464.816.55.15 1.12.173 1.712.072V18Zm0-2.904c-.661.096-1.224.013-1.688-.248a2.613 2.613 0 0 1-1.056-1.176c-.24-.517-.36-1.11-.36-1.776 0-.667.12-1.264.36-1.792.246-.528.598-.928 1.056-1.2.464-.277 1.027-.368 1.688-.272v6.464Zm1.416 0V8.632c.662-.096 1.222 0 1.68.288.464.283.819.69 1.064 1.224a4.22 4.22 0 0 1 .368 1.784c0 .65-.122 1.235-.368 1.752-.245.512-.6.901-1.064 1.168-.458.261-1.018.344-1.68.248ZM49.942 9.36h-1.168l-4.536 6.28V9.36h-1.376V18h1.176l4.528-6.368V18h1.376V9.36Zm1.44 8.64c.582.117 1.043.128 1.385.032.34-.09.602-.29.783-.6.182-.315.323-.733.425-1.256.08-.405.154-.91.224-1.512.074-.603.14-1.248.2-1.936.063-.688.12-1.36.167-2.016h3.32V18h1.424V9.36h-6.04a117.75 117.75 0 0 1-.248 3.472 30.003 30.003 0 0 1-.328 2.672c-.085.485-.205.84-.36 1.064-.154.224-.472.293-.952.208V18Zm10.175 0h3.368c.246 0 .505-.005.776-.016.278-.016.523-.048.737-.096.623-.139 1.127-.427 1.511-.864.39-.437.585-1.03.585-1.776 0-.81-.209-1.424-.625-1.84-.41-.421-.949-.699-1.616-.832a4.802 4.802 0 0 0-.688-.072c-.255-.01-.509-.016-.76-.016h-1.864V9.36H61.55l.008 8.64Zm1.424-1.176v-3.16h1.968c.155 0 .318.005.489.016.17.01.333.035.487.072.337.075.611.232.825.472.213.24.32.581.32 1.024 0 .437-.11.776-.328 1.016-.22.235-.462.39-.729.464-.16.043-.338.07-.535.08-.198.01-.374.016-.528.016h-1.97ZM72.58 18h1.424v-7.344h3.008V9.36h-7.44v1.296h3.008V18Zm5.938 3.84h1.432V17.2c.31.325.675.581 1.096.768.427.181.91.272 1.448.272.806 0 1.496-.2 2.072-.6A3.903 3.903 0 0 0 85.902 16c.31-.688.464-1.464.464-2.328 0-.864-.154-1.64-.464-2.328-.31-.688-.754-1.23-1.336-1.624-.576-.4-1.264-.6-2.064-.6-.586 0-1.106.107-1.56.32a3.31 3.31 0 0 0-1.152.888V9.36h-1.272v12.48Zm3.8-4.904c-.87 0-1.51-.307-1.92-.92-.405-.613-.608-1.395-.608-2.344 0-.955.203-1.733.608-2.336.41-.608 1.038-.912 1.88-.912.587 0 1.07.144 1.448.432.384.288.667.677.848 1.168.187.49.28 1.04.28 1.648 0 .613-.093 1.168-.28 1.664-.186.49-.466.88-.84 1.168-.373.288-.845.432-1.416.432Z" fill="#88868F"/>
  <path fill-rule="evenodd" clip-rule="evenodd" d="M3 7a1 1 0 0 1 1-1h16a1 1 0 1 1 0 2H4a1 1 0 0 1-1-1Zm3 5a1 1 0 0 1 1-1h10a1 1 0 0 1 0 2H7a1 1 0 0 1-1-1Zm3 5a1 1 0 0 1 1-1h4a1 1 0 0 1 0 2h-4a1 1 0 0 1-1-1Z" fill="#88868F"/>
</svg>
