<svg width="67" height="66" viewBox="0 0 67 66" fill="none" xmlns="http://www.w3.org/2000/svg">
<path fill-rule="evenodd" clip-rule="evenodd" d="M6.125 33.0002C6.125 29.4546 6.83308 25.9436 8.2088 22.6678C9.58452 19.392 11.6009 16.4155 14.143 13.9084C16.685 11.4012 19.7028 9.41237 23.024 8.0555C26.3453 6.69862 29.9051 6.00024 33.5 6.00024C37.0949 6.00024 40.6547 6.69862 43.976 8.0555C47.2972 9.41237 50.315 11.4012 52.857 13.9084C55.399 16.4155 57.4155 19.392 58.7912 22.6678C60.1669 25.9436 60.875 29.4546 60.875 33.0002C60.875 40.1611 57.9909 47.0286 52.857 52.0921C47.7232 57.1556 40.7603 60.0002 33.5 60.0002C26.2397 60.0002 19.2768 57.1556 14.143 52.0921C9.00914 47.0286 6.125 40.1611 6.125 33.0002ZM33.5 0.000244141C15.0219 0.000244141 0.041667 14.7752 0.041667 33.0002C0.041667 51.2252 15.0219 66.0002 33.5 66.0002C51.9781 66.0002 66.9583 51.2252 66.9583 33.0002C66.9583 14.7752 51.9781 0.000244141 33.5 0.000244141ZM48.1 22.8002C48.3397 22.4851 48.514 22.1264 48.6132 21.7448C48.7123 21.3631 48.7343 20.966 48.6778 20.576C48.6213 20.186 48.4874 19.8108 48.2839 19.4718C48.0804 19.1328 47.8112 18.8366 47.4917 18.6002C47.1721 18.3639 46.8085 18.1919 46.4215 18.0941C46.0346 17.9963 45.6319 17.9747 45.2365 18.0304C44.8411 18.0861 44.4607 18.2181 44.117 18.4188C43.7732 18.6195 43.473 18.8851 43.2333 19.2002L27.0882 40.4342L20.4421 33.8792C19.8685 33.3328 19.1001 33.0304 18.3026 33.0372C17.5051 33.0441 16.7422 33.3596 16.1783 33.9158C15.6143 34.472 15.2944 35.2244 15.2875 36.011C15.2806 36.7976 15.5871 37.5554 16.1412 38.1212L25.2662 47.1212C25.5743 47.4251 25.9451 47.6602 26.3533 47.8105C26.7615 47.9608 27.1977 48.0228 27.6324 47.9923C28.067 47.9619 28.49 47.8397 28.8726 47.634C29.2552 47.4284 29.5885 47.144 29.85 46.8002L48.1 22.8002Z" fill="#C5E05A"/>
</svg>
