<svg width="20" height="20" viewBox="0 0 20 20" fill="none" xmlns="http://www.w3.org/2000/svg">
<path fill-rule="evenodd" clip-rule="evenodd" d="M10.0001 2.50016C9.01516 2.50016 8.03984 2.69416 7.12985 3.07107C6.21987 3.44798 5.39303 4.00042 4.69656 4.69686C4.00009 5.3933 3.44761 6.22009 3.07069 7.13004C2.69376 8.03998 2.49975 9.01525 2.49975 10.0002C2.49975 10.9851 2.69376 11.9603 3.07069 12.8703C3.44761 13.7802 4.00009 14.607 4.69656 15.3035C5.39303 15.9999 6.21987 16.5523 7.12985 16.9293C8.03984 17.3062 9.01516 17.5002 10.0001 17.5002C11.9893 17.5002 13.8971 16.71 15.3037 15.3035C16.7103 13.8969 17.5005 11.9893 17.5005 10.0002C17.5005 8.01104 16.7103 6.10338 15.3037 4.69686C13.8971 3.29034 11.9893 2.50016 10.0001 2.50016ZM0.833008 10.0002C0.833008 4.93766 4.93737 0.833496 10.0001 0.833496C15.0629 0.833496 19.1672 4.93766 19.1672 10.0002C19.1672 15.0627 15.0629 19.1668 10.0001 19.1668C4.93737 19.1668 0.833008 15.0627 0.833008 10.0002ZM11.0418 6.04183C11.0418 6.3181 10.9321 6.58305 10.7367 6.7784C10.5414 6.97375 10.2764 7.0835 10.0001 7.0835C9.72384 7.0835 9.45887 6.97375 9.26351 6.7784C9.06815 6.58305 8.9584 6.3181 8.9584 6.04183C8.9584 5.76556 9.06815 5.50061 9.26351 5.30526C9.45887 5.10991 9.72384 5.00016 10.0001 5.00016C10.2764 5.00016 10.5414 5.10991 10.7367 5.30526C10.9321 5.50061 11.0418 5.76556 11.0418 6.04183ZM9.16674 8.3335C8.94572 8.3335 8.73375 8.42129 8.57746 8.57757C8.42117 8.73385 8.33337 8.94582 8.33337 9.16683C8.33337 9.38784 8.42117 9.5998 8.57746 9.75608C8.73375 9.91236 8.94572 10.0002 9.16674 10.0002V14.1668C9.16674 14.3878 9.25455 14.5998 9.41083 14.7561C9.56712 14.9124 9.77909 15.0002 10.0001 15.0002C10.2211 15.0002 10.4331 14.9124 10.5894 14.7561C10.7457 14.5998 10.8335 14.3878 10.8335 14.1668V9.16683C10.8335 8.94582 10.7457 8.73385 10.5894 8.57757C10.4331 8.42129 10.2211 8.3335 10.0001 8.3335H9.16674Z" fill="white"/>
</svg>
