<svg width="8" height="15" viewBox="0 0 8 15" fill="none" xmlns="http://www.w3.org/2000/svg">
<path fill-rule="evenodd" clip-rule="evenodd" d="M7.729 0.27428C7.89541 0.449955 7.9889 0.688189 7.9889 0.936593C7.9889 1.185 7.89541 1.42323 7.729 1.59891L2.14271 7.49414L7.729 13.3894C7.81378 13.4758 7.88141 13.5792 7.92793 13.6935C7.97445 13.8078 7.99894 13.9307 7.99997 14.0551C8.00099 14.1795 7.97853 14.3028 7.9339 14.4179C7.88926 14.5331 7.82335 14.6377 7.74 14.7256C7.65665 14.8136 7.55754 14.8831 7.44844 14.9302C7.33935 14.9773 7.22246 15.001 7.10459 15C6.98672 14.9989 6.87024 14.973 6.76193 14.9239C6.65363 14.8748 6.55568 14.8035 6.47379 14.714L0.259904 8.15646C0.0934868 7.98078 -9.53674e-07 7.74255 -9.53674e-07 7.49414C-9.53674e-07 7.24574 0.0934868 7.00751 0.259904 6.83183L6.47379 0.27428C6.64026 0.0986589 6.86601 0 7.10139 0C7.33678 0 7.56253 0.0986589 7.729 0.27428Z" fill="white"/>
</svg>
