<svg width="18" height="22" viewBox="0 0 18 22" fill="none" xmlns="http://www.w3.org/2000/svg">
<path fill-rule="evenodd" clip-rule="evenodd" d="M5.04297 4.15906C5.62903 3.71485 6.29926 3.39438 7.01297 3.21711C6.98023 2.9368 7.0072 2.65275 7.09208 2.38361C7.17697 2.11447 7.31786 1.86634 7.50549 1.65553C7.69312 1.44472 7.92324 1.27601 8.18073 1.16048C8.43822 1.04496 8.71725 0.985229 8.99947 0.985229C9.28169 0.985229 9.56072 1.04496 9.81821 1.16048C10.0757 1.27601 10.3058 1.44472 10.4935 1.65553C10.6811 1.86634 10.822 2.11447 10.9069 2.38361C10.9917 2.65275 11.0187 2.9368 10.986 3.21711C11.7 3.39425 12.3706 3.71473 12.957 4.15906C13.933 4.90902 14.498 5.91398 14.832 6.91693C15.164 7.91188 15.284 8.94883 15.342 9.82178C15.366 10.1768 15.381 10.5177 15.393 10.8187L15.402 11.0217C15.417 11.3817 15.433 11.6517 15.46 11.8497C15.655 13.3116 15.898 14.3366 16.244 15.1565C16.582 15.9575 17.034 16.6025 17.707 17.2754C17.8468 17.4153 17.942 17.5934 17.9806 17.7874C18.0191 17.9813 17.9993 18.1823 17.9236 18.365C17.848 18.5477 17.7198 18.7039 17.5554 18.8137C17.391 18.9236 17.1977 18.9823 17 18.9823H10.732C10.9073 19.2864 10.9996 19.6312 10.9995 19.9822C10.9994 20.3332 10.9069 20.6779 10.7313 20.9818C10.5557 21.2858 10.3033 21.5381 9.99928 21.7136C9.69528 21.889 9.35047 21.9814 8.99947 21.9814C8.64847 21.9814 8.30366 21.889 7.99966 21.7136C7.69567 21.5381 7.44321 21.2858 7.26764 20.9818C7.09208 20.6779 6.99959 20.3332 6.99947 19.9822C6.99935 19.6312 7.09161 19.2864 7.26697 18.9823H0.99997C0.80222 18.9823 0.608921 18.9236 0.444511 18.8137C0.280102 18.7039 0.151962 18.5477 0.0762921 18.365C0.000622056 18.1823 -0.019181 17.9813 0.0193866 17.7874C0.0579541 17.5934 0.153161 17.4153 0.29297 17.2754C0.96697 16.6014 1.41897 15.9615 1.75597 15.1635C2.09997 14.3466 2.34297 13.3216 2.53997 11.8497C2.56697 11.6507 2.58297 11.3817 2.59797 11.0207L2.60697 10.8187C2.61897 10.5188 2.63397 10.1768 2.65697 9.82178C2.71597 8.94883 2.83597 7.91188 3.16697 6.91693C3.50197 5.91398 4.06697 4.90802 5.04297 4.15906ZM3.06897 16.9824C3.26597 16.6564 3.44097 16.3125 3.59797 15.9415C4.04297 14.8885 4.31597 13.6626 4.52297 12.1157C4.56154 11.7812 4.58589 11.4453 4.59597 11.1087L4.60597 10.8927C4.61797 10.5927 4.63097 10.2828 4.65297 9.95578C4.70697 9.14182 4.81297 8.30386 5.06497 7.54889C5.31497 6.80193 5.69097 6.18296 6.26097 5.74498C6.82497 5.312 7.67197 4.98302 8.99997 4.98302C10.328 4.98302 11.175 5.312 11.739 5.74498C12.309 6.18296 12.686 6.80193 12.935 7.54889C13.187 8.30386 13.293 9.14182 13.347 9.95578C13.369 10.2828 13.382 10.5927 13.394 10.8917L13.404 11.1077C13.419 11.4577 13.437 11.8147 13.477 12.1157C13.683 13.6536 13.956 14.8785 14.401 15.9335C14.558 16.3065 14.735 16.6534 14.933 16.9824H3.06997H3.06897Z" fill="#88868F"/>
</svg>
