<svg width="18" height="22" viewBox="0 0 18 22" fill="none" xmlns="http://www.w3.org/2000/svg">
<path fill-rule="evenodd" clip-rule="evenodd" d="M5.04303 4.15528C5.62909 3.71107 6.29932 3.3906 7.01303 3.21332C6.98029 2.93302 7.00726 2.64896 7.09214 2.37982C7.17703 2.11068 7.31792 1.86255 7.50555 1.65175C7.69318 1.44094 7.9233 1.27223 8.18079 1.1567C8.43828 1.04117 8.71731 0.981445 8.99953 0.981445C9.28175 0.981445 9.56078 1.04117 9.81827 1.1567C10.0758 1.27223 10.3059 1.44094 10.4935 1.65175C10.6811 1.86255 10.822 2.11068 10.9069 2.37982C10.9918 2.64896 11.0188 2.93302 10.986 3.21332C11.7001 3.39047 12.3707 3.71095 12.957 4.15528C13.933 4.90524 14.498 5.91019 14.832 6.91314C15.164 7.90809 15.284 8.94504 15.342 9.818C15.366 10.173 15.381 10.514 15.393 10.815L15.402 11.0179C15.417 11.3779 15.433 11.6479 15.46 11.8459C15.655 13.3078 15.898 14.3328 16.244 15.1527C16.582 15.9537 17.034 16.5987 17.707 17.2716C17.8468 17.4115 17.942 17.5896 17.9806 17.7836C18.0192 17.9775 17.9994 18.1785 17.9237 18.3612C17.848 18.5439 17.7199 18.7001 17.5555 18.81C17.3911 18.9198 17.1978 18.9785 17 18.9785H10.732C10.9074 19.2826 10.9997 19.6274 10.9995 19.9784C10.9994 20.3294 10.9069 20.6741 10.7314 20.9781C10.5558 21.282 10.3033 21.5343 9.99934 21.7098C9.69534 21.8853 9.35053 21.9776 8.99953 21.9776C8.64853 21.9776 8.30372 21.8853 7.99973 21.7098C7.69573 21.5343 7.44327 21.282 7.2677 20.9781C7.09214 20.6741 6.99965 20.3294 6.99953 19.9784C6.99941 19.6274 7.09167 19.2826 7.26703 18.9785H1.00003C0.802281 18.9785 0.608982 18.9198 0.444573 18.81C0.280163 18.7001 0.152023 18.5439 0.0763531 18.3612C0.000683092 18.1785 -0.0191199 17.9775 0.0194476 17.7836C0.0580152 17.5896 0.153222 17.4115 0.293031 17.2716C0.967031 16.5977 1.41903 15.9577 1.75603 15.1597C2.10003 14.3428 2.34303 13.3178 2.54003 11.8459C2.56703 11.6469 2.58303 11.3779 2.59803 11.0169L2.60703 10.815C2.61903 10.515 2.63403 10.173 2.65703 9.818C2.71603 8.94504 2.83603 7.90809 3.16703 6.91314C3.50203 5.91019 4.06703 4.90424 5.04303 4.15528ZM3.06903 16.9786C3.26603 16.6527 3.44103 16.3087 3.59803 15.9377C4.04303 14.8848 4.31603 13.6588 4.52303 12.1119C4.5616 11.7774 4.58595 11.4415 4.59603 11.1049L4.60603 10.8889C4.61803 10.589 4.63103 10.279 4.65303 9.95199C4.70703 9.13803 4.81303 8.30007 5.06503 7.54511C5.31503 6.79815 5.69103 6.17918 6.26103 5.7412C6.82503 5.30822 7.67203 4.97924 9.00003 4.97924C10.328 4.97924 11.175 5.30822 11.739 5.7412C12.309 6.17918 12.686 6.79815 12.935 7.54511C13.187 8.30007 13.293 9.13803 13.347 9.95199C13.369 10.279 13.382 10.589 13.394 10.8879L13.404 11.1039C13.419 11.4539 13.437 11.8109 13.477 12.1119C13.683 13.6498 13.956 14.8748 14.401 15.9297C14.558 16.3027 14.735 16.6497 14.933 16.9786H3.07003H3.06903Z" fill="#88868F"/>
</svg>
