<svg width="20" height="20" viewBox="0 0 20 20" fill="none" xmlns="http://www.w3.org/2000/svg">
<path fill-rule="evenodd" clip-rule="evenodd" d="M1.81818 10C1.81818 8.92555 2.02981 7.86162 2.44099 6.86895C2.85216 5.87629 3.45483 4.97433 4.21458 4.21458C4.97433 3.45483 5.87629 2.85216 6.86895 2.44099C7.86162 2.02981 8.92555 1.81818 10 1.81818C11.0745 1.81818 12.1384 2.02981 13.131 2.44099C14.1237 2.85216 15.0257 3.45483 15.7854 4.21458C16.5452 4.97433 17.1478 5.87629 17.559 6.86895C17.9702 7.86162 18.1818 8.92555 18.1818 10C18.1818 12.17 17.3198 14.251 15.7854 15.7854C14.251 17.3198 12.17 18.1818 10 18.1818C7.83005 18.1818 5.74897 17.3198 4.21458 15.7854C2.68019 14.251 1.81818 12.17 1.81818 10ZM10 0C4.47727 0 0 4.47727 0 10C0 15.5227 4.47727 20 10 20C15.5227 20 20 15.5227 20 10C20 4.47727 15.5227 0 10 0ZM14.3636 6.90909C14.4353 6.81358 14.4874 6.7049 14.517 6.58926C14.5466 6.47361 14.5532 6.35326 14.5363 6.23507C14.5194 6.11689 14.4794 6.00319 14.4186 5.90046C14.3578 5.79773 14.2773 5.70799 14.1818 5.63636C14.0863 5.56473 13.9776 5.51262 13.862 5.48299C13.7463 5.45336 13.626 5.4468 13.5078 5.46368C13.3896 5.48057 13.2759 5.52056 13.1732 5.58139C13.0705 5.64221 12.9807 5.72268 12.9091 5.81818L8.08364 12.2527L6.09727 10.2664C5.92582 10.1008 5.69618 10.0091 5.45782 10.0112C5.21946 10.0133 4.99145 10.1089 4.82289 10.2774C4.65434 10.446 4.55873 10.674 4.55666 10.9124C4.55459 11.1507 4.64622 11.3804 4.81182 11.5518L7.53909 14.2791C7.63118 14.3712 7.74198 14.4424 7.864 14.4879C7.98601 14.5335 8.11638 14.5523 8.24629 14.5431C8.37619 14.5338 8.5026 14.4968 8.61695 14.4345C8.73131 14.3722 8.83094 14.286 8.90909 14.1818L14.3636 6.90909Z" fill="#27AE60"/>
</svg>
