<svg width="24" height="24" fill="none" xmlns="http://www.w3.org/2000/svg">
  <path fill-rule="evenodd" clip-rule="evenodd" d="M9.498 14.502c2.281 2.28 4.4 3.552 5.976 4.259 1.377.617 3.001.133 4.267-1.134l.29-.29-3.48-2.214c-.66.964-1.911 1.53-3.16 1.004-.946-.4-2.197-1.083-3.316-2.202-1.119-1.119-1.8-2.37-2.2-3.316-.528-1.248.037-2.5 1.002-3.16l-2.214-3.48-.29.29c-1.266 1.266-1.75 2.89-1.133 4.267.706 1.576 1.977 3.695 4.258 5.976Zm5.172 6.054c-1.786-.8-4.105-2.205-6.563-4.663-2.458-2.457-3.863-4.777-4.664-6.563-1.058-2.362-.092-4.831 1.539-6.463l.289-.29a1.968 1.968 0 0 1 3.052.334l2.785 4.38a.982.982 0 0 1-.39 1.406l-.623.312c-.425.213-.511.588-.408.835.334.79.892 1.801 1.78 2.69.888.887 1.9 1.445 2.69 1.779.246.104.621.017.834-.408l.312-.623a.985.985 0 0 1 1.407-.39l4.379 2.785a1.966 1.966 0 0 1 .334 3.052l-.29.29c-1.63 1.63-4.1 2.596-6.463 1.537Z" fill="#F85A3E"/>
</svg>
