<svg width="17" height="18" viewBox="0 0 17 18" fill="none" xmlns="http://www.w3.org/2000/svg">
<path fill-rule="evenodd" clip-rule="evenodd" d="M10.293 0.293275C10.1055 0.480802 10.0002 0.735111 10.0002 1.00027C10.0002 1.26544 10.1055 1.51975 10.293 1.70727L13.586 5.00027H8C5.87827 5.00027 3.84344 5.84313 2.34315 7.34342C0.842855 8.84371 0 10.8785 0 13.0003V17.0003C0 17.2655 0.105357 17.5198 0.292893 17.7074C0.48043 17.8949 0.734784 18.0003 1 18.0003C1.26522 18.0003 1.51957 17.8949 1.70711 17.7074C1.89464 17.5198 2 17.2655 2 17.0003V13.0003C2 11.409 2.63214 9.88285 3.75736 8.75763C4.88258 7.63242 6.4087 7.00027 8 7.00027H13.586L10.293 10.2933C10.1108 10.4819 10.01 10.7345 10.0123 10.9967C10.0146 11.2589 10.1198 11.5097 10.3052 11.6951C10.4906 11.8805 10.7414 11.9857 11.0036 11.9879C11.2658 11.9902 11.5184 11.8894 11.707 11.7073L16.707 6.70727C16.8945 6.51975 16.9998 6.26544 16.9998 6.00027C16.9998 5.73511 16.8945 5.4808 16.707 5.29327L11.707 0.293275C11.5195 0.105804 11.2652 0.000488281 11 0.000488281C10.7348 0.000488281 10.4805 0.105804 10.293 0.293275Z" fill="#88868F"/>
</svg>
