<svg width="24" height="24" viewBox="0 0 24 24" fill="none" xmlns="http://www.w3.org/2000/svg">
<path fill-rule="evenodd" clip-rule="evenodd" d="M10.8795 3.72461C11.3045 2.75846 12.6955 2.75846 13.1204 3.72461L15.0546 8.12285L19.8939 8.5775C20.9567 8.67672 21.3865 9.98097 20.5855 10.6784L16.9419 13.8513L17.9988 18.5299C18.2313 19.5586 17.106 20.3639 16.1858 19.8284L12 17.3923L7.81418 19.8293C6.89398 20.3649 5.76865 19.5596 6.00114 18.5308L7.05809 13.8523L3.41444 10.6793C2.61343 9.98193 3.04324 8.67768 4.10703 8.57847L8.94537 8.12381L10.8795 3.72557V3.72461ZM12 6.02005L10.5083 9.41072L10.2797 9.93281L9.70536 9.98675L5.97379 10.3374L8.78321 12.7841L9.21596 13.1597L9.09092 13.7146L8.27525 17.3229L11.5037 15.4436L12 15.1546L12.4962 15.4436L15.7247 17.322L14.909 13.7146L14.784 13.1597L15.2167 12.7841L18.0262 10.3374L14.2946 9.98675L13.7202 9.93281L13.4916 9.41072L12 6.02005Z" fill="#F85A3E"/>
</svg>
