<svg width="22" height="18" viewBox="0 0 22 18" fill="none" xmlns="http://www.w3.org/2000/svg">
<path fill-rule="evenodd" clip-rule="evenodd" d="M4.98771 1C4.98771 0.734784 4.88235 0.48043 4.69482 0.292893C4.50728 0.105357 4.25293 0 3.98771 0C3.7225 0 3.46814 0.105357 3.28061 0.292893C3.09307 0.48043 2.98771 0.734784 2.98771 1V14.586L1.69471 13.293C1.50611 13.1108 1.25351 13.01 0.99131 13.0123C0.729114 13.0146 0.478301 13.1198 0.292893 13.3052C0.107485 13.4906 0.00231622 13.7414 3.78026e-05 14.0036C-0.00224062 14.2658 0.0985537 14.5184 0.280712 14.707L3.28071 17.707C3.46824 17.8945 3.72255 17.9998 3.98771 17.9998C4.25288 17.9998 4.50718 17.8945 4.69471 17.707L7.69471 14.707C7.87687 14.5184 7.97766 14.2658 7.97539 14.0036C7.97311 13.7414 7.86794 13.4906 7.68253 13.3052C7.49712 13.1198 7.24631 13.0146 6.98411 13.0123C6.72192 13.01 6.46931 13.1108 6.28071 13.293L4.98771 14.586V1ZM10.9877 3C10.7225 3 10.4681 3.10536 10.2806 3.29289C10.0931 3.48043 9.98771 3.73478 9.98771 4C9.98771 4.26522 10.0931 4.51957 10.2806 4.70711C10.4681 4.89464 10.7225 5 10.9877 5H20.9877C21.2529 5 21.5073 4.89464 21.6948 4.70711C21.8824 4.51957 21.9877 4.26522 21.9877 4C21.9877 3.73478 21.8824 3.48043 21.6948 3.29289C21.5073 3.10536 21.2529 3 20.9877 3H10.9877ZM10.9877 8C10.7225 8 10.4681 8.10536 10.2806 8.29289C10.0931 8.48043 9.98771 8.73478 9.98771 9C9.98771 9.26522 10.0931 9.51957 10.2806 9.70711C10.4681 9.89464 10.7225 10 10.9877 10H16.9877C17.2529 10 17.5073 9.89464 17.6948 9.70711C17.8824 9.51957 17.9877 9.26522 17.9877 9C17.9877 8.73478 17.8824 8.48043 17.6948 8.29289C17.5073 8.10536 17.2529 8 16.9877 8H10.9877ZM10.9877 13C10.7225 13 10.4681 13.1054 10.2806 13.2929C10.0931 13.4804 9.98771 13.7348 9.98771 14C9.98771 14.2652 10.0931 14.5196 10.2806 14.7071C10.4681 14.8946 10.7225 15 10.9877 15H13.9877C14.2529 15 14.5073 14.8946 14.6948 14.7071C14.8824 14.5196 14.9877 14.2652 14.9877 14C14.9877 13.7348 14.8824 13.4804 14.6948 13.2929C14.5073 13.1054 14.2529 13 13.9877 13H10.9877Z" fill="#88868F"/>
</svg>
