<svg width="142" height="40" fill="none" xmlns="http://www.w3.org/2000/svg">
  <g clip-path="url(#a)" fill="#F85A3E">
    <path d="M38.11 10.745c-.638.395-1.1.885-1.42 1.485h-.063v-1.675h-6.272V25.27h6.527v-7.144c0-.712.255-1.312.766-1.786.51-.49 1.181-.727 2.027-.727.207 0 .43.015.686.047.255.032.479.063.686.126l.511-5.484c-.32-.095-.734-.142-1.245-.142-.83 0-1.58.19-2.202.585ZM8.395 10.57c.303-.142.702-.205 1.18-.205.527 0 1.118.143 1.772.427a4.227 4.227 0 0 1 1.66 1.28l4.181-4.22a10.83 10.83 0 0 0-3.607-2.18c-1.356-.523-2.697-.775-4.005-.775-.974 0-1.963.126-2.969.363A7.827 7.827 0 0 0 3.91 6.446a6.61 6.61 0 0 0-1.963 2.117c-.51.87-.766 1.913-.766 3.146 0 .885.144 1.628.43 2.26.288.632.671 1.17 1.15 1.612a7.308 7.308 0 0 0 1.66 1.138c.622.316 1.276.569 1.947.79.702.221 1.276.427 1.74.585.462.174.83.316 1.085.458.255.143.446.269.558.411.096.127.16.285.16.474 0 .348-.16.601-.463.727a2.68 2.68 0 0 1-1.037.19A5.26 5.26 0 0 1 6 19.77c-.782-.395-1.405-.837-1.884-1.343L0 22.85c.51.443 1.085.854 1.724 1.217.638.364 1.324.68 2.042.949a13.27 13.27 0 0 0 4.66.822c1.022 0 2.011-.143 3-.427A8.211 8.211 0 0 0 14.06 24.1c.782-.585 1.405-1.328 1.9-2.213.478-.885.717-1.928.717-3.113 0-1.028-.223-1.881-.654-2.577a6.097 6.097 0 0 0-1.66-1.77 9.31 9.31 0 0 0-2.186-1.154c-.798-.3-1.548-.553-2.266-.79a14.731 14.731 0 0 1-1.516-.553c-.304-.142-.463-.38-.463-.664 0-.332.16-.569.463-.695Zm20.459-.015H25.36V5.86l-6.32 3.35.032 11.222c0 1.786.48 3.114 1.437 3.951.957.854 2.442 1.28 4.436 1.28.67 0 1.325-.047 1.931-.142.607-.094 1.086-.22 1.42-.363v-4.426c-.127.032-.302.08-.542.111a4.818 4.818 0 0 1-.654.063c-.543 0-.974-.126-1.293-.379-.303-.253-.463-.727-.463-1.438v-3.92l3.511-4.615ZM60.98 8.643c.304.284.67.521 1.086.68.415.173.861.252 1.324.252.447 0 .878-.079 1.277-.253a3.63 3.63 0 0 0 1.053-.68 3.18 3.18 0 0 0 .734-1.027 3.198 3.198 0 0 0 0-2.576 3.443 3.443 0 0 0-.734-1.043 3.63 3.63 0 0 0-1.053-.711 3.13 3.13 0 0 0-1.277-.27c-.479 0-.91.096-1.324.27a3.39 3.39 0 0 0-1.086.71 3.44 3.44 0 0 0-.734 1.044 3.122 3.122 0 0 0-.271 1.28c0 .474.096.901.271 1.296.176.38.415.727.734 1.028Zm-3.622 6.195a7.667 7.667 0 0 0-1.596-2.56 7.264 7.264 0 0 0-2.474-1.676c-.957-.395-2.027-.6-3.192-.6-1.149 0-2.234.19-3.24.553-1.005.38-1.883.9-2.633 1.58s-1.324 1.518-1.771 2.498c-.431.98-.655 2.07-.655 3.287 0 1.312.24 2.45.703 3.446a7.194 7.194 0 0 0 1.883 2.481c.782.664 1.675 1.154 2.697 1.502a10.07 10.07 0 0 0 3.128.505c1.66 0 3.112-.3 4.357-.916 1.245-.617 2.202-1.454 2.873-2.513L52.809 20.1c-.207.269-.51.506-.925.712-.4.22-.91.316-1.517.316a3.254 3.254 0 0 1-1.692-.443 2.133 2.133 0 0 1-.59-.537 1.258 1.258 0 0 1-.271-.696h9.99c.017-.174.032-.38.048-.632.016-.253.016-.506.016-.743.048-1.185-.127-2.26-.51-3.24Zm-9.544 1.107c.064-.412.287-.807.67-1.202.4-.395.958-.585 1.66-.585.654 0 1.181.174 1.564.506s.575.759.575 1.28h-4.469Zm30.323 4.947c-.543 0-.974-.127-1.293-.38-.303-.253-.463-.727-.463-1.438V15.17l3.495-4.615h-3.495V5.86l-6.32 3.35.032 11.222c0 1.786.479 3.114 1.436 3.951.958.854 2.442 1.28 4.437 1.28.67 0 1.325-.047 1.931-.142.607-.094 1.085-.22 1.42-.363v-4.426c-.127.032-.302.08-.542.111a4.34 4.34 0 0 1-.638.047ZM60.23 25.27h6.528V10.002l-6.528 3.35V25.27Zm26.652-11.254c.224-.11.527-.158.894-.158.4 0 .846.11 1.34.332.496.221.91.537 1.246.948l3.144-3.177a8.226 8.226 0 0 0-2.698-1.643c-1.021-.38-2.026-.57-3.016-.57-.734 0-1.484.096-2.218.27-.75.19-1.42.474-2.027.9-.606.411-1.085.949-1.468 1.58-.383.649-.575 1.423-.575 2.356 0 .664.112 1.217.32 1.691.207.474.494.87.861 1.217.367.332.766.616 1.245.854.463.237.957.426 1.468.6.527.174.958.316 1.309.443.351.126.622.237.814.347.191.111.335.206.415.3a.55.55 0 0 1 .111.364c0 .269-.111.443-.35.553-.24.095-.495.143-.767.143a3.959 3.959 0 0 1-1.819-.443c-.59-.3-1.053-.632-1.404-1.011l-3.112 3.319c.383.331.813.632 1.292.9.479.27.99.506 1.532.712.543.205 1.117.348 1.692.458.59.11 1.18.158 1.787.158.766 0 1.517-.11 2.25-.332a6.6 6.6 0 0 0 1.98-.98 5.13 5.13 0 0 0 1.42-1.66c.367-.663.543-1.438.543-2.338 0-.775-.16-1.407-.495-1.929a4.448 4.448 0 0 0-1.245-1.311 6.788 6.788 0 0 0-1.644-.87 27.372 27.372 0 0 0-1.691-.585c-.527-.173-.894-.3-1.134-.426-.239-.11-.35-.285-.35-.506a.584.584 0 0 1 .35-.506Zm12.385 1.486-4.565-.537c.08-.506.256-1.312.75-2.118.687-1.138 1.58-1.644 2.283-2.04.367-.205 1.803-.947 3.814-.916.878.016 2.841.048 4.548 1.533.399.348 1.181 1.043 1.628 2.292.303.838.351 1.596.351 2.07v6.165c0 .663.032 1.17.112 1.548.08.38.239.854.495 1.423h-4.485c-.175-.364-.303-.632-.351-.822a7.178 7.178 0 0 1-.16-.885c-.622.68-1.244 1.154-1.867 1.454-.846.38-1.835.585-2.952.585-1.484 0-2.618-.38-3.384-1.154-.766-.774-1.149-1.723-1.149-2.86 0-1.06.272-1.929.83-2.624.559-.68 1.58-1.186 3.08-1.534 1.788-.41 2.953-.68 3.479-.853.527-.158 1.102-.38 1.692-.632 0-.664-.128-1.122-.367-1.375-.239-.269-.67-.395-1.277-.395-.782 0-1.372.142-1.755.426-.32.237-.559.648-.75 1.249Zm4.149 2.83c-.654.268-1.34.49-2.059.694-.973.285-1.58.57-1.835.854a1.38 1.38 0 0 0-.399.98c0 .427.128.759.4 1.027.254.269.653.395 1.148.395.527 0 1.022-.142 1.484-.426.463-.285.782-.648.974-1.06.191-.41.287-.963.287-1.627v-.838Zm7.118 6.874h7.629V4.296l-7.629 4.584v16.326Zm25.12-10.526a7.672 7.672 0 0 0-1.596-2.56 7.262 7.262 0 0 0-2.474-1.676c-.957-.395-2.026-.6-3.191-.6-1.149 0-2.235.19-3.24.553-1.006.38-1.883.9-2.633 1.58-.751.68-1.325 1.518-1.772 2.498-.431.98-.654 2.07-.654 3.287 0 1.312.239 2.45.702 3.446a7.196 7.196 0 0 0 1.883 2.481c.782.664 1.676 1.154 2.697 1.502 1.022.332 2.059.505 3.128.505 1.66 0 3.112-.3 4.357-.916 1.245-.617 2.203-1.454 2.873-2.513l-4.628-2.324c-.208.269-.511.506-.926.711-.399.222-.91.317-1.516.317a3.272 3.272 0 0 1-1.692-.443 2.129 2.129 0 0 1-.59-.537 1.256 1.256 0 0 1-.272-.696h9.991c.016-.174.032-.38.048-.632.016-.253.016-.506.016-.743a8.19 8.19 0 0 0-.511-3.24Zm-9.56 1.107c.064-.411.288-.807.671-1.202.399-.395.957-.585 1.66-.585.654 0 1.18.174 1.564.506.383.332.574.759.574 1.28h-4.469ZM1.165 35.796l.048.016h48.229l10.724-5.943H11.858L1.165 35.796Zm131.201-5.406-12.017-4.662.718 4.14H72.774l-10.74 5.944h59.065L120.461 40l11.921-4.931L138 32.666l-5.634-2.276Z"/>
  </g>
  <defs>
    <clipPath id="a">
      <path fill="#fff" d="M0 0h142v40H0z"/>
    </clipPath>
  </defs>
</svg>
